<?xml version="1.0" standalone="no"?>
<!DOCTYPE svg PUBLIC "-//W3C//DTD SVG 20010904//EN"
 "http://www.w3.org/TR/2001/REC-SVG-20010904/DTD/svg10.dtd">
<svg version="1.0" xmlns="http://www.w3.org/2000/svg"
 width="64.000000pt" height="64.000000pt" viewBox="0 0 64.000000 64.000000"
 preserveAspectRatio="xMidYMid meet">

<g transform="translate(0.000000,64.000000) scale(0.100000,-0.100000)"
fill="#000000" stroke="none">
<path d="M0 320 l0 -320 320 0 320 0 0 320 0 320 -320 0 -320 0 0 -320z m338
228 c7 -7 8 -17 1 -30 -5 -10 -9 -24 -8 -31 3 -26 -1 -38 -12 -31 -6 3 -9 15
-6 25 3 10 -1 26 -8 36 -21 28 8 56 33 31z m-63 -18 c3 -5 -1 -10 -10 -10 -9
0 -13 5 -10 10 3 6 8 10 10 10 2 0 7 -4 10 -10z m110 0 c3 -5 -1 -10 -10 -10
-9 0 -13 5 -10 10 3 6 8 10 10 10 2 0 7 -4 10 -10z m-159 -29 c-9 -8 -18 -12
-22 -9 -9 10 3 25 21 25 14 0 14 -2 1 -16z m221 -7 c-7 -7 -37 7 -37 17 0 6 9
5 21 -1 11 -7 19 -14 16 -16z m-257 -24 c0 -5 -7 -10 -15 -10 -8 0 -15 5 -15
10 0 6 7 10 15 10 8 0 15 -4 15 -10z m290 0 c0 -5 -4 -10 -10 -10 -5 0 -10 5
-10 10 0 6 5 10 10 10 6 0 10 -4 10 -10z m33 -46 c-6 -17 -23 -9 -23 11 0 8 6
12 14 9 8 -3 12 -12 9 -20z m-363 7 c0 -6 -4 -13 -10 -16 -5 -3 -10 1 -10 9 0
9 5 16 10 16 6 0 10 -4 10 -9z m176 -18 c-10 -10 -19 5 -10 18 6 11 8 11 12 0
2 -7 1 -15 -2 -18z m69 -21 c-3 -3 -11 0 -18 7 -9 10 -8 11 6 5 10 -3 15 -9
12 -12z m-265 -11 c0 -6 -4 -13 -10 -16 -5 -3 -10 1 -10 9 0 9 5 16 10 16 6 0
10 -4 10 -9z m408 -2 c-2 -6 -8 -10 -13 -10 -5 0 -11 4 -13 10 -2 6 4 11 13
11 9 0 15 -5 13 -11z m-338 -34 c0 -8 5 -15 10 -15 6 0 10 7 10 15 0 8 8 15
18 15 15 0 15 -2 2 -10 -13 -9 -12 -12 5 -26 18 -14 15 -14 -40 -11 -33 3 -68
0 -79 -5 -26 -14 -54 13 -32 31 11 9 20 10 35 2 26 -14 31 -14 31 4 0 8 9 15
20 15 11 0 20 -7 20 -15z m95 -2 c-16 -13 -17 -15 -2 -10 11 4 17 1 17 -8 0
-8 -9 -15 -20 -15 -11 0 -20 4 -20 9 0 22 13 41 29 41 13 -1 13 -3 -4 -17z
m65 -8 c0 -30 -15 -33 -30 -6 -14 27 -13 31 10 31 15 0 20 -7 20 -25z m115 9
c10 -14 15 -14 34 -4 19 10 26 9 39 -4 23 -23 2 -43 -30 -30 -13 6 -45 9 -73
8 -29 -2 -52 2 -57 9 -9 15 0 27 20 26 11 0 12 -3 5 -6 -7 -2 -13 -9 -13 -14
0 -4 7 -6 15 -3 8 4 15 12 15 20 0 19 30 18 45 -2z m-345 -80 c0 -8 -4 -12
-10 -9 -5 3 -10 10 -10 16 0 5 5 9 10 9 6 0 10 -7 10 -16z m404 7 c3 -5 -1
-11 -9 -15 -9 -3 -15 0 -15 9 0 16 16 20 24 6z m-384 -57 c0 -8 -4 -12 -10 -9
-5 3 -10 13 -10 21 0 8 5 12 10 9 6 -3 10 -13 10 -21z m180 10 c0 -8 -5 -12
-10 -9 -6 4 -8 11 -5 16 9 14 15 11 15 -7z m180 -3 c0 -6 -4 -13 -10 -16 -5
-3 -10 1 -10 9 0 9 5 16 10 16 6 0 10 -4 10 -9z m-177 -57 c-2 -7 1 -22 7 -34
9 -16 8 -25 -1 -36 -20 -25 -40 2 -33 45 9 59 14 68 24 52 4 -8 6 -20 3 -27z
m-143 11 c0 -8 -7 -15 -15 -15 -8 0 -15 7 -15 15 0 8 7 15 15 15 8 0 15 -7 15
-15z m289 8 c-1 -14 -60 -56 -67 -48 -4 4 -1 10 7 13 7 2 21 13 30 22 17 19
31 25 30 13z m-243 -50 c-8 -8 -36 5 -36 17 0 7 6 7 21 0 11 -7 18 -14 15 -17z
m148 -14 c-3 -5 -10 -7 -15 -3 -5 3 -7 10 -3 15 3 5 10 7 15 3 5 -3 7 -10 3
-15z m-104 1 c0 -5 -4 -10 -9 -10 -6 0 -13 5 -16 10 -3 6 1 10 9 10 9 0 16 -4
16 -10z"/>
</g>
</svg>
